<svg width="40" height="40" viewBox="0 0 40 40" fill="none" xmlns="http://www.w3.org/2000/svg">
<rect width="40" height="40" rx="6" fill="#454545"/>
<path d="M27.58 28.8C27.82 28.98 27.94 29.27 27.94 29.67C27.94 30.07 27.81 30.51 27.55 30.99C27.29 31.45 26.96 31.84 26.56 32.16C26.16 32.46 25.77 32.61 25.39 32.61C24.55 32.61 24.01 31.84 23.77 30.3C23.69 29.74 23.65 29.11 23.65 28.41C23.65 28.05 23.67 27.49 23.71 26.73L23.74 25.05C23.74 24.17 23.76 22.85 23.8 21.09C23.86 19.31 23.89 17.54 23.89 15.78C23.39 17.12 22.76 18.96 22 21.3C21.78 21.98 21.56 22.54 21.34 22.98C21.12 23.42 20.8 23.81 20.38 24.15C19.98 24.49 19.58 24.66 19.18 24.66C18.42 24.66 17.79 24.15 17.29 23.13C16.79 22.11 16.36 20.96 16 19.68L15.73 21.9C15.47 23.9 15.23 25.5 15.01 26.7C14.81 27.9 14.51 29.1 14.11 30.3C13.81 31.2 13.46 31.97 13.06 32.61C12.68 33.23 12.18 33.54 11.56 33.54C10.86 33.54 10.51 33.18 10.51 32.46C10.51 31.96 10.66 31.39 10.96 30.75C10.94 30.79 10.92 30.83 10.9 30.87C10.9 30.89 10.89 30.9 10.87 30.9L11.05 30.33C11.23 29.73 11.39 29.02 11.53 28.2C11.83 26.68 12.11 24.97 12.37 23.07L13.09 17.82C13.31 15.94 13.55 14.13 13.81 12.39C13.95 11.37 14.1 10.57 14.26 9.99C14.44 9.39 14.76 8.82 15.22 8.28C15.44 8.02 15.69 7.81 15.97 7.65C16.27 7.49 16.55 7.41 16.81 7.41C17.25 7.41 17.58 7.61 17.8 8.01C17.96 8.31 18.06 8.8 18.1 9.48L18.19 10.2C18.33 10.94 18.51 11.75 18.73 12.63C19.27 14.79 19.76 16.45 20.2 17.61C20.36 17.13 20.46 16.84 20.5 16.74C21.06 15.1 21.56 13.74 22 12.66C22.46 11.58 23.01 10.58 23.65 9.66C23.95 9.24 24.29 8.88 24.67 8.58C25.05 8.26 25.43 8.1 25.81 8.1C26.23 8.1 26.53 8.25 26.71 8.55C26.91 8.83 27.03 9.12 27.07 9.42C27.13 9.7 27.19 10.18 27.25 10.86C27.33 11.76 27.37 12.8 27.37 13.98C27.37 14.84 27.33 16.15 27.25 17.91C27.23 18.27 27.21 18.72 27.19 19.26C27.17 19.8 27.16 20.43 27.16 21.15L27.13 23.19C27.13 23.85 27.15 24.82 27.19 26.1L27.16 27.06C27.16 27.98 27.3 28.56 27.58 28.8Z" fill="white"/>
</svg>
