<?xml version="1.0" encoding="utf-8"?>
<svg xmlns="http://www.w3.org/2000/svg" xmlns:xlink="http://www.w3.org/1999/xlink">
    <symbol viewBox="0 -960 960 960" id="arrow-right" xmlns="http://www.w3.org/2000/svg">
        <path d="m560-240-56-58 142-142H160v-80h486L504-662l56-58 240 240-240 240Z"/>
    </symbol>
    <symbol viewBox="0 -960 960 960" id="code" xmlns="http://www.w3.org/2000/svg">
        <path d="M320-240 80-480l240-240 57 57-184 184 183 183-56 56Zm320 0-57-57 184-184-183-183 56-56 240 240-240 240Z"/>
    </symbol>
    <symbol viewBox="0 -960 960 960" id="fast" xmlns="http://www.w3.org/2000/svg">
        <path d="m226-559 78 33q14-28 29-54t33-52l-56-11-84 84Zm142 83 114 113q42-16 90-49t90-75q70-70 109.5-155.5T806-800q-72-5-158 34.5T492-656q-42 42-75 90t-49 90Zm178-65q-23-23-23-56.5t23-56.5q23-23 57-23t57 23q23 23 23 56.5T660-541q-23 23-57 23t-57-23Zm19 321 84-84-11-56q-26 18-52 32.5T532-299l33 79Zm313-653q19 121-23.5 235.5T708-419l20 99q4 20-2 39t-20 33L538-80l-84-197-171-171-197-84 167-168q14-14 33.5-20t39.5-2l99 20q104-104 218-147t235-24ZM157-321q35-35 85.5-35.5T328-322q35 35 34.5 85.5T327-151q-25 25-83.5 43T82-76q14-103 32-161.5t43-83.5Zm57 56q-10 10-20 36.5T180-175q27-4 53.5-13.5T270-208q12-12 13-29t-11-29q-12-12-29-11.5T214-265Z"/>
    </symbol>
    <symbol viewBox="0 0 24 24" id="instagram" xmlns="http://www.w3.org/2000/svg">
        <path fill-rule="evenodd" clip-rule="evenodd"
              d="M12 18C15.3137 18 18 15.3137 18 12C18 8.68629 15.3137 6 12 6C8.68629 6 6 8.68629 6 12C6 15.3137 8.68629 18 12 18ZM12 16C14.2091 16 16 14.2091 16 12C16 9.79086 14.2091 8 12 8C9.79086 8 8 9.79086 8 12C8 14.2091 9.79086 16 12 16Z"/>
        <path d="M18 5C17.4477 5 17 5.44772 17 6C17 6.55228 17.4477 7 18 7C18.5523 7 19 6.55228 19 6C19 5.44772 18.5523 5 18 5Z"/>
        <path fill-rule="evenodd" clip-rule="evenodd"
              d="M1.65396 4.27606C1 5.55953 1 7.23969 1 10.6V13.4C1 16.7603 1 18.4405 1.65396 19.7239C2.2292 20.8529 3.14708 21.7708 4.27606 22.346C5.55953 23 7.23969 23 10.6 23H13.4C16.7603 23 18.4405 23 19.7239 22.346C20.8529 21.7708 21.7708 20.8529 22.346 19.7239C23 18.4405 23 16.7603 23 13.4V10.6C23 7.23969 23 5.55953 22.346 4.27606C21.7708 3.14708 20.8529 2.2292 19.7239 1.65396C18.4405 1 16.7603 1 13.4 1H10.6C7.23969 1 5.55953 1 4.27606 1.65396C3.14708 2.2292 2.2292 3.14708 1.65396 4.27606ZM13.4 3H10.6C8.88684 3 7.72225 3.00156 6.82208 3.0751C5.94524 3.14674 5.49684 3.27659 5.18404 3.43597C4.43139 3.81947 3.81947 4.43139 3.43597 5.18404C3.27659 5.49684 3.14674 5.94524 3.0751 6.82208C3.00156 7.72225 3 8.88684 3 10.6V13.4C3 15.1132 3.00156 16.2777 3.0751 17.1779C3.14674 18.0548 3.27659 18.5032 3.43597 18.816C3.81947 19.5686 4.43139 20.1805 5.18404 20.564C5.49684 20.7234 5.94524 20.8533 6.82208 20.9249C7.72225 20.9984 8.88684 21 10.6 21H13.4C15.1132 21 16.2777 20.9984 17.1779 20.9249C18.0548 20.8533 18.5032 20.7234 18.816 20.564C19.5686 20.1805 20.1805 19.5686 20.564 18.816C20.7234 18.5032 20.8533 18.0548 20.9249 17.1779C20.9984 16.2777 21 15.1132 21 13.4V10.6C21 8.88684 20.9984 7.72225 20.9249 6.82208C20.8533 5.94524 20.7234 5.49684 20.564 5.18404C20.1805 4.43139 19.5686 3.81947 18.816 3.43597C18.5032 3.27659 18.0548 3.14674 17.1779 3.0751C16.2777 3.00156 15.1132 3 13.4 3Z"/>
    </symbol>
    <symbol viewBox="0 -960 960 960" id="intuitive" xmlns="http://www.w3.org/2000/svg">
        <path d="M390-120q-51 0-88-35.5T260-241q-60-8-100-53t-40-106q0-21 5.5-41.5T142-480q-11-18-16.5-38t-5.5-42q0-61 40-105.5t99-52.5q3-51 41-86.5t90-35.5q26 0 48.5 10t41.5 27q18-17 41-27t49-10q52 0 89.5 35t40.5 86q59 8 99.5 53T840-560q0 22-5.5 42T818-480q11 18 16.5 38.5T840-400q0 62-40.5 106.5T699-241q-5 50-41.5 85.5T570-120q-25 0-48.5-9.5T480-156q-19 17-42 26.5t-48 9.5Zm130-590v460q0 21 14.5 35.5T570-200q20 0 34.5-16t15.5-36q-21-8-38.5-21.5T550-306q-10-14-7.5-30t16.5-26q14-10 30-7.5t26 16.5q11 16 28 24.5t37 8.5q33 0 56.5-23.5T760-400q0-5-.5-10t-2.5-10q-17 10-36.5 15t-40.5 5q-17 0-28.5-11.5T640-440q0-17 11.5-28.5T680-480q33 0 56.5-23.5T760-560q0-33-23.5-56T680-640q-11 18-28.5 31.5T613-587q-16 6-31-1t-20-23q-5-16 1.5-31t22.5-20q15-5 24.5-18t9.5-30q0-21-14.5-35.5T570-760q-21 0-35.5 14.5T520-710Zm-80 460v-460q0-21-14.5-35.5T390-760q-21 0-35.5 14.5T340-710q0 16 9 29.5t24 18.5q16 5 23 20t2 31q-6 16-21 23t-31 1q-21-8-38.5-21.5T279-640q-32 1-55.5 24.5T200-560q0 33 23.5 56.5T280-480q17 0 28.5 11.5T320-440q0 17-11.5 28.5T280-400q-21 0-40.5-5T203-420q-2 5-2.5 10t-.5 10q0 33 23.5 56.5T280-320q20 0 37-8.5t28-24.5q10-14 26-16.5t30 7.5q14 10 16.5 26t-7.5 30q-14 19-32 33t-39 22q1 20 16 35.5t35 15.5q21 0 35.5-14.5T440-250Zm40-230Z"/>
    </symbol>
    <symbol viewBox="0 -960 960 960" id="responsive" xmlns="http://www.w3.org/2000/svg">
        <path d="M120-120v-520h200v-200h520v720H120Zm520-80h120v-560H400v120h240v440Zm-240 0h160v-360H400v360Zm-200 0h120v-360H200v360Zm440-440v80-80Zm-320 80Zm240 0Zm80-80Z"/>
    </symbol>
    <symbol viewBox="0 0 48 48" id="tg" xmlns="http://www.w3.org/2000/svg">
        <path d="M41.4193 7.30899C41.4193 7.30899 45.3046 5.79399 44.9808 9.47328C44.8729 10.9883 43.9016 16.2908 43.1461 22.0262L40.5559 39.0159C40.5559 39.0159 40.3401 41.5048 38.3974 41.9377C36.4547 42.3705 33.5408 40.4227 33.0011 39.9898C32.5694 39.6652 24.9068 34.7955 22.2086 32.4148C21.4531 31.7655 20.5897 30.4669 22.3165 28.9519L33.6487 18.1305C34.9438 16.8319 36.2389 13.8019 30.8426 17.4812L15.7331 27.7616C15.7331 27.7616 14.0063 28.8437 10.7686 27.8698L3.75342 25.7055C3.75342 25.7055 1.16321 24.0823 5.58815 22.459C16.3807 17.3729 29.6555 12.1786 41.4193 7.30899Z"/>
    </symbol>
    <symbol viewBox="-2.5 0 32 32" id="vk" xmlns="http://www.w3.org/2000/svg">
        <title>vk</title>
        <path d="M16.563 15.75c-0.5-0.188-0.5-0.906-0.531-1.406-0.125-1.781 0.5-4.5-0.25-5.656-0.531-0.688-3.094-0.625-4.656-0.531-0.438 0.063-0.969 0.156-1.344 0.344s-0.75 0.5-0.75 0.781c0 0.406 0.938 0.344 1.281 0.875 0.375 0.563 0.375 1.781 0.375 2.781 0 1.156-0.188 2.688-0.656 2.75-0.719 0.031-1.125-0.688-1.5-1.219-0.75-1.031-1.5-2.313-2.063-3.563-0.281-0.656-0.438-1.375-0.844-1.656-0.625-0.438-1.75-0.469-2.844-0.438-1 0.031-2.438-0.094-2.719 0.5-0.219 0.656 0.25 1.281 0.5 1.813 1.281 2.781 2.656 5.219 4.344 7.531 1.563 2.156 3.031 3.875 5.906 4.781 0.813 0.25 4.375 0.969 5.094 0 0.25-0.375 0.188-1.219 0.313-1.844s0.281-1.25 0.875-1.281c0.5-0.031 0.781 0.406 1.094 0.719 0.344 0.344 0.625 0.625 0.875 0.938 0.594 0.594 1.219 1.406 1.969 1.719 1.031 0.438 2.625 0.313 4.125 0.25 1.219-0.031 2.094-0.281 2.188-1 0.063-0.563-0.563-1.375-0.938-1.844-0.938-1.156-1.375-1.5-2.438-2.563-0.469-0.469-1.063-0.969-1.063-1.531-0.031-0.344 0.25-0.656 0.5-1 1.094-1.625 2.188-2.781 3.188-4.469 0.281-0.5 0.938-1.656 0.688-2.219-0.281-0.625-1.844-0.438-2.813-0.438-1.25 0-2.875-0.094-3.188 0.156-0.594 0.406-0.844 1.063-1.125 1.688-0.625 1.438-1.469 2.906-2.344 4-0.313 0.375-0.906 1.156-1.25 1.031z"/>
    </symbol>
    <symbol viewBox="0 0 24 24" id="whatsapp" xmlns="http://www.w3.org/2000/svg">
        <path d="M6.014 8.00613C6.12827 7.1024 7.30277 5.87414 8.23488 6.01043L8.23339 6.00894C9.14051 6.18132 9.85859 7.74261 10.2635 8.44465C10.5504 8.95402 10.3641 9.4701 10.0965 9.68787C9.7355 9.97883 9.17099 10.3803 9.28943 10.7834C9.5 11.5 12 14 13.2296 14.7107C13.695 14.9797 14.0325 14.2702 14.3207 13.9067C14.5301 13.6271 15.0466 13.46 15.5548 13.736C16.3138 14.178 17.0288 14.6917 17.69 15.27C18.0202 15.546 18.0977 15.9539 17.8689 16.385C17.4659 17.1443 16.3003 18.1456 15.4542 17.9421C13.9764 17.5868 8 15.27 6.08033 8.55801C5.97237 8.24048 5.99955 8.12044 6.014 8.00613Z"/>
        <path fill-rule="evenodd" clip-rule="evenodd"
              d="M12 23C10.7764 23 10.0994 22.8687 9 22.5L6.89443 23.5528C5.56462 24.2177 4 23.2507 4 21.7639V19.5C1.84655 17.492 1 15.1767 1 12C1 5.92487 5.92487 1 12 1C18.0751 1 23 5.92487 23 12C23 18.0751 18.0751 23 12 23ZM6 18.6303L5.36395 18.0372C3.69087 16.4772 3 14.7331 3 12C3 7.02944 7.02944 3 12 3C16.9706 3 21 7.02944 21 12C21 16.9706 16.9706 21 12 21C11.0143 21 10.552 20.911 9.63595 20.6038L8.84847 20.3397L6 21.7639V18.6303Z"/>
    </symbol>
</svg>