<svg width="583" height="590" viewBox="0 0 583 590" fill="none" xmlns="http://www.w3.org/2000/svg">
<path d="M505.176 74.8261C546.569 120.124 559.065 189.633 570.78 258.361C582.495 327.87 593.429 396.598 565.313 441.115C537.197 485.632 470.031 505.157 403.646 532.492C336.48 559.827 270.095 594.191 202.929 588.724C135.763 582.476 67.0346 536.397 31.8896 471.574C-3.25539 407.532 -5.5984 326.308 6.8976 246.646C20.1746 166.984 49.0716 88.8841 104.523 46.7101C159.193 3.75509 241.198 -4.83591 316.955 2.19309C392.712 8.44109 463.783 29.5281 505.176 74.8261Z" fill="url(#paint0_linear_43_6)"/>
<defs>
<linearGradient id="paint0_linear_43_6" x1="0" y1="589.303" x2="589.269" y2="6.28456" gradientUnits="userSpaceOnUse">
<stop stop-color="#D3D3D3"/>
<stop offset="1" stop-color="#D3D3D3" stop-opacity="0"/>
</linearGradient>
</defs>
</svg>
